<svg width="41" height="35" viewBox="0 0 41 35" fill="none" xmlns="http://www.w3.org/2000/svg">
<path d="M35.9805 0.3125H11.6055C9.02078 0.3125 6.91797 2.41531 6.91797 5C6.91797 5.86297 7.6175 6.5625 8.48047 6.5625C9.34344 6.5625 10.043 5.86297 10.043 5C10.043 4.13844 10.7439 3.4375 11.6055 3.4375H35.9805C36.842 3.4375 37.543 4.13844 37.543 5V20.625C37.543 21.4866 36.842 22.1875 35.9805 22.1875H34.418V14.375C34.418 11.7903 32.3152 9.6875 29.7305 9.6875H5.35547C2.77078 9.6875 0.667969 11.7903 0.667969 14.375V30C0.667969 32.5847 2.77078 34.6875 5.35547 34.6875H29.7305C32.3152 34.6875 34.418 32.5847 34.418 30V25.3125H35.9805C38.5652 25.3125 40.668 23.2097 40.668 20.625V5C40.668 2.41531 38.5652 0.3125 35.9805 0.3125ZM31.293 30C31.293 30.8616 30.592 31.5625 29.7305 31.5625H5.35547C4.49391 31.5625 3.79297 30.8616 3.79297 30V14.375C3.79297 13.5134 4.49391 12.8125 5.35547 12.8125H29.7305C30.592 12.8125 31.293 13.5134 31.293 14.375V15.9375H8.48047C7.6175 15.9375 6.91797 16.637 6.91797 17.5C6.91797 18.363 7.6175 19.0625 8.48047 19.0625H31.293V30Z" fill="#62D0B6"/>
<path d="M26.6055 28.4375H20.3555C19.4925 28.4375 18.793 27.738 18.793 26.875C18.793 26.012 19.4925 25.3125 20.3555 25.3125H26.6055C27.4684 25.3125 28.168 26.012 28.168 26.875C28.168 27.738 27.4684 28.4375 26.6055 28.4375Z" fill="#62D0B6"/>
</svg>
