<svg width="14" height="14" viewBox="0 0 14 14" fill="none" xmlns="http://www.w3.org/2000/svg">
<path fill-rule="evenodd" clip-rule="evenodd" d="M2.54229 3.56223C2.53235 3.45222 2.54543 3.34134 2.58071 3.23666C2.61599 3.13198 2.67269 3.03579 2.74719 2.95423C2.82169 2.87268 2.91237 2.80753 3.01344 2.76295C3.11451 2.71837 3.22376 2.69534 3.33422 2.69531H12.976C13.0951 2.69536 13.2127 2.72215 13.32 2.77371C13.4274 2.82527 13.5218 2.90027 13.5962 2.99319C13.6707 3.0861 13.7234 3.19456 13.7504 3.31055C13.7773 3.42654 13.7779 3.54711 13.7521 3.66336L12.9374 7.33556C12.7972 7.96662 12.446 8.53101 11.9418 8.93549C11.4375 9.33997 10.8104 9.56036 10.1639 9.56024H5.67934C4.97022 9.56028 4.28673 9.29508 3.76321 8.81677C3.2397 8.33845 2.91402 7.68162 2.8502 6.97538L2.54229 3.56223ZM3.7069 3.83151L3.98186 6.87312C4.02017 7.29706 4.21573 7.69132 4.53008 7.97834C4.84443 8.26535 5.25481 8.42435 5.68048 8.42404H10.1651C10.5528 8.42394 10.929 8.29161 11.2314 8.04889C11.5338 7.80617 11.7444 7.46757 11.8285 7.089L12.5522 3.83151H3.7069Z" fill="#333333"/>
<path fill-rule="evenodd" clip-rule="evenodd" d="M0.191406 0.786851C0.191406 0.636181 0.25126 0.491682 0.357799 0.385143C0.464339 0.278603 0.608837 0.21875 0.759507 0.21875H2.7524C2.89137 0.218891 3.02546 0.26996 3.12931 0.362294C3.23316 0.454628 3.29956 0.581824 3.31596 0.719815L3.77271 4.58403C3.79034 4.7338 3.74775 4.88443 3.65432 5.0028C3.56088 5.12117 3.42425 5.19757 3.27449 5.21519C3.12472 5.23282 2.97409 5.19023 2.85572 5.0968C2.73736 5.00336 2.66096 4.86674 2.64333 4.71697L2.24679 1.35381H0.759507C0.608837 1.35381 0.464339 1.29396 0.357799 1.18742C0.25126 1.08088 0.191406 0.93752 0.191406 0.786851ZM5.30431 12.5272C5.45498 12.5272 5.59948 12.4674 5.70602 12.3608C5.81256 12.2543 5.87241 12.1098 5.87241 11.9591C5.87241 11.8084 5.81256 11.6639 5.70602 11.5574C5.59948 11.4509 5.45498 11.391 5.30431 11.391C5.15364 11.391 5.00914 11.4509 4.9026 11.5574C4.79606 11.6639 4.73621 11.8084 4.73621 11.9591C4.73621 12.1098 4.79606 12.2543 4.9026 12.3608C5.00914 12.4674 5.15364 12.5272 5.30431 12.5272ZM5.30431 13.6634C5.52812 13.6634 5.74974 13.6193 5.95652 13.5337C6.16329 13.448 6.35118 13.3225 6.50943 13.1642C6.66769 13.006 6.79323 12.8181 6.87888 12.6113C6.96453 12.4045 7.00861 12.1829 7.00861 11.9591C7.00861 11.7353 6.96453 11.5137 6.87888 11.3069C6.79323 11.1001 6.66769 10.9123 6.50943 10.754C6.35118 10.5957 6.16329 10.4702 5.95652 10.3845C5.74974 10.2989 5.52812 10.2548 5.30431 10.2548C4.8523 10.2548 4.41881 10.4344 4.09919 10.754C3.77957 11.0736 3.60001 11.5071 3.60001 11.9591C3.60001 12.4111 3.77957 12.8446 4.09919 13.1642C4.41881 13.4839 4.8523 13.6634 5.30431 13.6634ZM10.4877 12.5272C10.6383 12.5272 10.7828 12.4674 10.8894 12.3608C10.9959 12.2543 11.0558 12.1098 11.0558 11.9591C11.0558 11.8084 10.9959 11.6639 10.8894 11.5574C10.7828 11.4509 10.6383 11.391 10.4877 11.391C10.337 11.391 10.1925 11.4509 10.086 11.5574C9.97941 11.6639 9.91956 11.8084 9.91956 11.9591C9.91956 12.1098 9.97941 12.2543 10.086 12.3608C10.1925 12.4674 10.337 12.5272 10.4877 12.5272ZM10.4877 13.6634C10.7115 13.6634 10.9331 13.6193 11.1399 13.5337C11.3466 13.448 11.5345 13.3225 11.6928 13.1642C11.851 13.006 11.9766 12.8181 12.0622 12.6113C12.1479 12.4045 12.192 12.1829 12.192 11.9591C12.192 11.7353 12.1479 11.5137 12.0622 11.3069C11.9766 11.1001 11.851 10.9123 11.6928 10.754C11.5345 10.5957 11.3466 10.4702 11.1399 10.3845C10.9331 10.2989 10.7115 10.2548 10.4877 10.2548C10.0357 10.2548 9.60216 10.4344 9.28254 10.754C8.96292 11.0736 8.78336 11.5071 8.78336 11.9591C8.78336 12.4111 8.96292 12.8446 9.28254 13.1642C9.60216 13.4839 10.0357 13.6634 10.4877 13.6634Z" fill="#333333"/>
</svg>
