<svg width="13" height="13" viewBox="0 0 13 13" fill="none" xmlns="http://www.w3.org/2000/svg">
<path d="M12.9813 5.00585C12.9365 4.86796 12.8174 4.76746 12.6739 4.74664L8.64387 4.16101L6.84153 0.509165C6.77739 0.379166 6.64498 0.296875 6.50002 0.296875C6.35504 0.296875 6.22266 0.379166 6.15849 0.509165L4.35607 4.16101L0.326087 4.74664C0.182656 4.76746 0.0634476 4.86796 0.0186587 5.00583C-0.0261556 5.14372 0.0112193 5.29508 0.115041 5.39626L3.03109 8.23883L2.34281 12.2526C2.31828 12.3955 2.37703 12.5399 2.49431 12.6251C2.56066 12.6733 2.63924 12.6979 2.7182 12.6979C2.77884 12.6979 2.83967 12.6834 2.89538 12.6541L6.5 10.759L10.1045 12.6541C10.2328 12.7216 10.3883 12.7103 10.5056 12.6251C10.6228 12.5399 10.6816 12.3955 10.6571 12.2526L9.9686 8.23883L12.885 5.39623C12.9888 5.29508 13.0262 5.14372 12.9813 5.00585Z" fill="#FFC62A"/>
</svg>
