<svg width="50" height="56" viewBox="0 0 50 56" fill="none" xmlns="http://www.w3.org/2000/svg">
<path d="M0.5 4C0.5 2.067 2.067 0.5 4 0.5H46C47.933 0.5 49.5 2.067 49.5 4V52C49.5 53.933 47.933 55.5 46 55.5H4C2.067 55.5 0.5 53.933 0.5 52V4Z" stroke="#EEEEEE"/>
<path d="M29.1484 20.0938C27.6511 20.0938 26.3385 20.7614 25.3526 22.0246C25.2211 22.193 25.1039 22.3616 25 22.5248C24.8961 22.3615 24.7789 22.193 24.6474 22.0246C23.6615 20.7614 22.3489 20.0938 20.8516 20.0938C18.023 20.0938 16 22.4621 16 25.304C16 28.5536 18.6633 31.6162 24.6357 35.2343C24.7476 35.3021 24.8738 35.336 25 35.336C25.1262 35.336 25.2524 35.3021 25.3643 35.2343C31.3367 31.6163 34 28.5537 34 25.3041C34 22.4636 31.9786 20.0938 29.1484 20.0938ZM30.736 29.3504C29.4926 30.7377 27.6137 32.1985 25 33.809C22.3863 32.1985 20.5074 30.7377 19.264 29.3504C18.0139 27.9555 17.4062 26.632 17.4062 25.3041C17.4062 23.2578 18.7891 21.5 20.8516 21.5C21.9019 21.5 22.7975 21.9567 23.5134 22.8574C24.0859 23.5777 24.3271 24.3215 24.3288 24.3268C24.4204 24.6205 24.6923 24.8206 25 24.8206C25.3077 24.8206 25.5797 24.6206 25.6713 24.3268C25.6735 24.3197 25.9075 23.5991 26.4611 22.8898C27.181 21.9676 28.0851 21.5 29.1484 21.5C31.2131 21.5 32.5938 23.2595 32.5938 25.304C32.5938 26.6319 31.9861 27.9555 30.736 29.3504Z" fill="#A5A5A5"/>
</svg>
